<svg width="118" height="118" viewBox="0 0 118 118" fill="none" xmlns="http://www.w3.org/2000/svg">
<g clip-path="url(#clip0)">
<path d="M100.719 17.2807C89.5758 6.13713 74.7592 0 59 0C43.2399 0 28.4242 6.13713 17.2807 17.2807C6.13713 28.4242 0 43.2399 0 59C0 74.7592 6.13713 89.5758 17.2807 100.719C28.4242 111.863 43.2399 118 59 118C74.7592 118 89.5758 111.863 100.719 100.719C111.863 89.5758 118 74.7592 118 59C118 43.2399 111.863 28.4242 100.719 17.2807ZM29.5783 101.956C32.046 87.7483 44.358 77.2682 59 77.2682C73.6429 77.2682 85.954 87.7483 88.4217 101.956C80.0447 107.712 69.9095 111.086 59 111.086C48.0905 111.086 37.9553 107.712 29.5783 101.956ZM40.2402 51.5944C40.2402 41.2494 48.6559 32.8346 59 32.8346C69.3441 32.8346 77.7598 41.2503 77.7598 51.5944C77.7598 61.9385 69.3441 70.3542 59 70.3542C48.6559 70.3542 40.2402 61.9385 40.2402 51.5944ZM94.4103 97.1606C92.5494 90.5463 88.8538 84.5451 83.6737 79.8574C80.4957 76.9811 76.8784 74.7115 72.9893 73.1117C80.0186 68.5266 84.6748 60.5944 84.6748 51.5944C84.6748 37.4377 73.1567 25.9205 59 25.9205C44.8433 25.9205 33.3261 37.4377 33.3261 51.5944C33.3261 60.5944 37.9823 68.5266 45.0107 73.1117C41.1225 74.7115 37.5043 76.9802 34.3263 79.8565C29.1471 84.5442 25.4506 90.5454 23.5897 97.1597C13.3402 87.6411 6.91406 74.0579 6.91406 59C6.91406 30.2796 30.2796 6.91406 59 6.91406C87.7204 6.91406 111.086 30.2796 111.086 59C111.086 74.0588 104.66 87.642 94.4103 97.1606Z" fill="#333333"/>
</g>
<defs>
<clipPath id="clip0">
<rect width="118" height="118" fill="white"/>
</clipPath>
</defs>
</svg>
