<svg width="18" height="18" viewBox="0 0 18 18" fill="none" xmlns="http://www.w3.org/2000/svg">
<g clip-path="url(#clip0)">
<path d="M11.5128 1.97262C8.883 -0.657214 4.60276 -0.657214 1.97292 1.97262C-0.656339 4.60302 -0.656339 8.8827 1.97292 11.5131C4.31486 13.8545 7.96231 14.1053 10.5904 12.277C10.6457 12.5387 10.7723 12.7884 10.9758 12.9919L14.8057 16.8218C15.3638 17.3788 16.2657 17.3788 16.821 16.8218C17.3785 16.2642 17.3785 15.3624 16.821 14.8065L12.9911 10.9755C12.7887 10.7737 12.5384 10.6466 12.2768 10.5913C14.1062 7.96257 13.8553 4.3157 11.5128 1.97262ZM10.3037 10.3039C8.34028 12.2673 5.14491 12.2673 3.18209 10.3039C1.21983 8.34054 1.21983 5.14575 3.18209 3.18235C5.14491 1.21953 8.34028 1.21953 10.3037 3.18235C12.2671 5.14575 12.2671 8.34054 10.3037 10.3039Z" fill="#333333"/>
</g>
<defs>
<clipPath id="clip0">
<rect width="17.239" height="17.239" fill="white"/>
</clipPath>
</defs>
</svg>
