<svg width="25" height="13" viewBox="0 0 25 13" fill="none" xmlns="http://www.w3.org/2000/svg">
<path d="M24.0235 5.52343H3.34191L6.76789 2.11406C7.15017 1.73359 7.15163 1.11528 6.77116 0.733004C6.39069 0.35068 5.77233 0.349264 5.39006 0.729684L0.287323 5.80781C0.286981 5.8081 0.286737 5.80844 0.286444 5.80874C-0.0948545 6.18921 -0.0960752 6.80952 0.286347 7.19126C0.286688 7.19155 0.286933 7.19189 0.287226 7.19218L5.38996 12.2703C5.77219 12.6507 6.39055 12.6494 6.77106 12.267C7.15153 11.8847 7.15007 11.2664 6.76779 10.8859L3.34191 7.47656H24.0235C24.5628 7.47656 25 7.03935 25 6.5C25 5.96064 24.5628 5.52343 24.0235 5.52343Z" fill="#002E3B"/>
</svg>
