<svg width="30" height="30" viewBox="0 0 30 30" fill="none" xmlns="http://www.w3.org/2000/svg">
<path d="M27.0968 1.45166H2.90323C1.30645 1.45166 0 2.75811 0 4.35489C0 5.95166 1.30645 7.25811 2.90323 7.25811H27.0968C28.6935 7.25811 30 5.95166 30 4.35489C30 2.75811 28.6935 1.45166 27.0968 1.45166Z" fill="#333333"/>
<path d="M27.0968 12.0969H2.90323C1.30645 12.0969 0 13.4034 0 15.0001C0 16.5969 1.30645 17.9034 2.90323 17.9034H27.0968C28.6935 17.9034 30 16.5969 30 15.0001C30 13.4034 28.6935 12.0969 27.0968 12.0969Z" fill="#333333"/>
<path d="M27.0968 22.7419H2.90323C1.30645 22.7419 0 24.0484 0 25.6452C0 27.2419 1.30645 28.5484 2.90323 28.5484H27.0968C28.6935 28.5484 30 27.2419 30 25.6452C30 24.0484 28.6935 22.7419 27.0968 22.7419Z" fill="#333333"/>
</svg>
